<svg version="1.1" xmlns="http://www.w3.org/2000/svg" viewBox="0 0 1072.5 588.4968207588544" width="2145" height="1176.9936415177087" filter="invert(93%) hue-rotate(180deg)">
  <!-- svg-source:excalidraw -->
  
  <defs>
    <style class="style-fonts">
      @font-face {
        font-family: "Virgil";
        src: url("https://excalidraw.com/Virgil.woff2");
      }
      @font-face {
        font-family: "Cascadia";
        src: url("https://excalidraw.com/Cascadia.woff2");
      }
      @font-face {
        font-family: "Assistant";
        src: url("https://app.excalidraw.com//dist/excalidraw-assets/Assistant-Regular.woff2");
      }
    </style>
    
  </defs>
  <rect x="0" y="0" width="1072.5" height="588.4968207588544" fill="#ffffff"></rect><g stroke-linecap="round" transform="translate(10 73.49682075885435) rotate(0 100 32.5)"><path d="M0 0 C68.81 0.17, 134.56 -1.54, 200 0 M0 0 C49.16 -0.6, 100.14 -0.66, 200 0 M200 0 C199.69 25.62, 200.43 48.86, 200 65 M200 0 C199.68 16.94, 200.16 34.9, 200 65 M200 65 C142.95 65.32, 85.38 64.07, 0 65 M200 65 C125.19 66.78, 49.56 66.21, 0 65 M0 65 C-0.84 45.73, 0.74 25.07, 0 0 M0 65 C-1.21 42.65, 0.25 18.61, 0 0" stroke="#1e1e1e" stroke-width="2" fill="none"></path></g><g transform="translate(92.5 95.99682075885435) rotate(0 17.5 10)"><text x="17.5" y="14.016" font-family="Virgil, Segoe UI Emoji" font-size="16px" fill="#000" text-anchor="middle" style="white-space: pre;" direction="ltr" dominant-baseline="alphabetic">Alice</text></g><g stroke-linecap="round" transform="translate(10 512.4968207588544) rotate(0 100 32.5)"><path d="M0 0 C61.42 -1.71, 121.92 -1.39, 200 0 M0 0 C62.05 0.36, 124.63 0.37, 200 0 M200 0 C200.78 25.97, 199.4 50.39, 200 65 M200 0 C200 24.78, 199.68 50.01, 200 65 M200 65 C146.67 65.58, 94.61 64.21, 0 65 M200 65 C122.94 65.25, 46.48 65.5, 0 65 M0 65 C0.99 42.87, 1.37 25.09, 0 0 M0 65 C1.19 40.67, -0.29 16.06, 0 0" stroke="#1e1e1e" stroke-width="2" fill="none"></path></g><g transform="translate(88.5 534.9968207588544) rotate(0 21.5 10)"><text x="21.5" y="14.016" font-family="Virgil, Segoe UI Emoji" font-size="16px" fill="#000" text-anchor="middle" style="white-space: pre;" direction="ltr" dominant-baseline="alphabetic">Alice </text></g><g stroke-linecap="round" transform="translate(260 73.49682075885435) rotate(0 75 32.5)"><path d="M0 0 C46.49 -0.04, 95.18 -0.8, 150 0 M0 0 C38.66 0.28, 76.81 0.82, 150 0 M150 0 C149.64 24.47, 151.91 48.54, 150 65 M150 0 C149.99 16.09, 149.79 31.88, 150 65 M150 65 C98.88 62.82, 46.42 65.27, 0 65 M150 65 C100.43 64.46, 51.13 64.07, 0 65 M0 65 C0.85 47.05, 1.15 24.81, 0 0 M0 65 C-1.24 40.15, -0.63 17.68, 0 0" stroke="#2f9e44" stroke-width="2" fill="none"></path></g><g transform="translate(274.5 95.99682075885435) rotate(0 60.5 10)"><text x="60.5" y="14.016" font-family="Virgil, Segoe UI Emoji" font-size="16px" fill="#2f9e44" text-anchor="middle" style="white-space: pre;" direction="ltr" dominant-baseline="alphabetic">New Device/App</text></g><g stroke-linecap="round" transform="translate(260 512.4968207588544) rotate(0 75 32.5)"><path d="M0 0 C33.43 -1.07, 65.52 1.01, 150 0 M0 0 C37.84 0.8, 74.69 1.17, 150 0 M150 0 C151.46 21.31, 148.68 44.15, 150 65 M150 0 C149.58 18.93, 150.42 37.57, 150 65 M150 65 C109.49 64.13, 66.24 62.87, 0 65 M150 65 C110.08 64.48, 69.77 65.27, 0 65 M0 65 C1.03 48.81, 1 37.07, 0 0 M0 65 C0.34 48.2, 0.51 31.22, 0 0" stroke="#2f9e44" stroke-width="2" fill="none"></path></g><g transform="translate(274.5 534.9968207588544) rotate(0 60.5 10)"><text x="60.5" y="14.016" font-family="Virgil, Segoe UI Emoji" font-size="16px" fill="#2f9e44" text-anchor="middle" style="white-space: pre;" direction="ltr" dominant-baseline="alphabetic">New Device/App</text></g><g stroke-linecap="round" transform="translate(546 73.49682075885435) rotate(0 75 32.5)"><path d="M0 0 C34.94 1.59, 70.69 2.89, 150 0 M0 0 C37.91 0.36, 74.62 -0.33, 150 0 M150 0 C149.42 19.6, 150.32 38.16, 150 65 M150 0 C150.29 20.98, 149.6 42.67, 150 65 M150 65 C119.82 64.71, 87.78 65.33, 0 65 M150 65 C105.75 64.69, 60.81 64.88, 0 65 M0 65 C0.9 42.41, -1.14 15.46, 0 0 M0 65 C0.11 52.49, 0.25 38.36, 0 0" stroke="#fd7e14" stroke-width="2" fill="none"></path></g><g transform="translate(562.4500007629395 95.99682075885435) rotate(0 58.54999923706055 10)"><text x="58.54999923706055" y="14.016" font-family="Virgil, Segoe UI Emoji" font-size="16px" fill="#fd7e14" text-anchor="middle" style="white-space: pre;" direction="ltr" dominant-baseline="alphabetic">Old Device/App</text></g><g stroke-linecap="round" transform="translate(547 513.4968207588544) rotate(0 75 32.5)"><path d="M0 0 C29.06 1.33, 59.22 1.69, 150 0 M0 0 C45.62 -0.89, 90.47 0.25, 150 0 M150 0 C149.41 17.36, 150.08 34.6, 150 65 M150 0 C150.14 21.28, 149.38 41.89, 150 65 M150 65 C100.18 64.38, 51.55 64.82, 0 65 M150 65 C110.85 66.07, 73.87 66.22, 0 65 M0 65 C-1.13 48.87, -2.37 35.54, 0 0 M0 65 C0.14 42.39, -0.85 20, 0 0" stroke="#fd7e14" stroke-width="2" fill="none"></path></g><g transform="translate(563.4500007629395 535.9968207588544) rotate(0 58.54999923706055 10)"><text x="58.54999923706055" y="14.016" font-family="Virgil, Segoe UI Emoji" font-size="16px" fill="#fd7e14" text-anchor="middle" style="white-space: pre;" direction="ltr" dominant-baseline="alphabetic">Old Device/App</text></g><g stroke-linecap="round" transform="translate(887.5 73.49682075885435) rotate(0 87.5 32.5)"><path d="M0 0 C52.33 0.54, 106.79 0.33, 175 0 M0 0 C59.21 1.37, 118.23 -0.02, 175 0 M175 0 C175.38 20.08, 175.24 42.49, 175 65 M175 0 C173.93 20.5, 175.16 39.62, 175 65 M175 65 C128.57 65.28, 81.47 64.87, 0 65 M175 65 C117.02 66.64, 56.9 66.62, 0 65 M0 65 C-1.71 40.62, 1.12 16.93, 0 0 M0 65 C-0.95 40.7, 0.84 17.73, 0 0" stroke="#1e1e1e" stroke-width="2" fill="none"></path></g><g transform="translate(907.4333343505859 85.99682075885435) rotate(0 67.56666564941406 20)"><text x="67.56666564941406" y="14.016" font-family="Virgil, Segoe UI Emoji" font-size="16px" fill="#000" text-anchor="middle" style="white-space: pre;" direction="ltr" dominant-baseline="alphabetic">Message History </text><text x="67.56666564941406" y="34.016" font-family="Virgil, Segoe UI Emoji" font-size="16px" fill="#000" text-anchor="middle" style="white-space: pre;" direction="ltr" dominant-baseline="alphabetic">Server</text></g><g stroke-linecap="round" transform="translate(887.5 512.4968207588544) rotate(0 87.5 32.5)"><path d="M0 0 C64.81 0.01, 130.33 -0.81, 175 0 M0 0 C46.84 -2.01, 94.44 -1.56, 175 0 M175 0 C175.46 19.65, 175.19 36.89, 175 65 M175 0 C174.66 24.7, 174.03 48.46, 175 65 M175 65 C122.37 65.26, 72.21 63.82, 0 65 M175 65 C112.26 66.88, 51.74 65.86, 0 65 M0 65 C1.52 50.61, 2.04 36.52, 0 0 M0 65 C1.48 47.78, 0.5 29.13, 0 0" stroke="#1e1e1e" stroke-width="2" fill="none"></path></g><g transform="translate(907.4333343505859 524.9968207588544) rotate(0 67.56666564941406 20)"><text x="67.56666564941406" y="14.016" font-family="Virgil, Segoe UI Emoji" font-size="16px" fill="#000" text-anchor="middle" style="white-space: pre;" direction="ltr" dominant-baseline="alphabetic">Message History </text><text x="67.56666564941406" y="34.016" font-family="Virgil, Segoe UI Emoji" font-size="16px" fill="#000" text-anchor="middle" style="white-space: pre;" direction="ltr" dominant-baseline="alphabetic">Server</text></g><g stroke-linecap="round"><g transform="translate(110 138.49682075885437) rotate(0 -0.15679571573636508 187)"><path d="M0 0 C0.51 145.66, -0.34 290.38, 0 374 M0 0 C-0.54 143.16, -0.74 286.6, 0 374" stroke="#999" stroke-width="1" fill="none"></path></g></g><mask></mask><g stroke-linecap="round"><g transform="translate(335 138.49682075885437) rotate(0 0.4827544635834613 187)"><path d="M0 0 C0.51 141.23, 1.89 282.22, 0 374 M0 0 C0.35 91.41, 0.23 182.64, 0 374" stroke="#999" stroke-width="1" fill="none"></path></g></g><mask></mask><g stroke-linecap="round"><g transform="translate(621 138.49682075885437) rotate(0 -0.2560383196071143 187)"><path d="M0 0 C0.31 125.56, -1.38 252.05, 0 374 M0 0 C-0.51 108.1, 0.01 216.03, 0 374" stroke="#999" stroke-width="1" fill="none"></path></g></g><mask></mask><g stroke-linecap="round"><g transform="translate(975 138.49682075885437) rotate(0 0.30785858122624177 187)"><path d="M0 0 C1.21 110.8, 1.76 220.97, 0 374 M0 0 C-0.45 120.6, -0.87 241.63, 0 374" stroke="#999" stroke-width="1" fill="none"></path></g></g><mask></mask><g mask="url(#mask-XnEBsfc6IrQqiKri5KxJm)" stroke-linecap="round"><g transform="translate(111.5 182.49682075885437) rotate(0 108.86478670698591 -0.798280741412384)"><path d="M0.23 -0.13 C36.76 0.02, 182.44 0.21, 218.84 0.27 M-1.11 -1.25 C35.28 -1.42, 181.35 -2.19, 217.81 -1.71" stroke="#1e1e1e" stroke-width="2" fill="none"></path></g><g transform="translate(111.5 182.49682075885437) rotate(0 108.86478670698591 -0.798280741412384)"><path d="M194.29 6.78 C200.5 4.16, 207.55 1.46, 217.81 -1.71 M194.29 6.78 C201.49 4.84, 208.15 2.25, 217.81 -1.71" stroke="#1e1e1e" stroke-width="2" fill="none"></path></g><g transform="translate(111.5 182.49682075885437) rotate(0 108.86478670698591 -0.798280741412384)"><path d="M194.34 -10.32 C200.43 -8.3, 207.47 -6.36, 217.81 -1.71 M194.34 -10.32 C201.61 -6.86, 208.26 -4.05, 217.81 -1.71" stroke="#1e1e1e" stroke-width="2" fill="none"></path></g></g><mask id="mask-XnEBsfc6IrQqiKri5KxJm"><rect x="0" y="0" fill="#fff" width="430.5" height="282.49682075885437"></rect><rect x="136.1999969482422" y="172.49682075885437" fill="#000" width="169.60000610351562" height="20" opacity="1"></rect></mask><g transform="translate(136.1999969482422 172.49682075885437) rotate(0 84.16478975874372 9.201719258587616)"><text x="84.80000305175781" y="14.016" font-family="Virgil, Segoe UI Emoji" font-size="16px" fill="#1e1e1e" text-anchor="middle" style="white-space: pre;" direction="ltr" dominant-baseline="alphabetic">Initiate account sync</text></g><g mask="url(#mask-bg0d9iuhsU5UsWSnaFQ-a)" stroke-linecap="round"><g transform="translate(336.5 236.49682075885437) rotate(0 138.94947332945654 0.5955668009631268)"><path d="M-0.16 0.27 C46.4 0.32, 232.81 0.23, 279.6 0.19 M-1.7 -0.64 C44.65 -0.35, 231.47 1.49, 278.45 1.83" stroke="#2f9e44" stroke-width="2" fill="none"></path></g><g transform="translate(336.5 236.49682075885437) rotate(0 138.94947332945654 0.5955668009631268)"><path d="M254.88 10.17 C262.86 6.88, 270.24 5.9, 278.45 1.83 M254.88 10.17 C261.08 8.31, 269.43 5.25, 278.45 1.83" stroke="#2f9e44" stroke-width="2" fill="none"></path></g><g transform="translate(336.5 236.49682075885437) rotate(0 138.94947332945654 0.5955668009631268)"><path d="M255.03 -6.93 C262.94 -4.76, 270.28 -0.29, 278.45 1.83 M255.03 -6.93 C261.15 -3.62, 269.45 -1.51, 278.45 1.83" stroke="#2f9e44" stroke-width="2" fill="none"></path></g></g><mask id="mask-bg0d9iuhsU5UsWSnaFQ-a"><rect x="0" y="0" fill="#fff" width="716.5" height="336.49682075885437"></rect><rect x="407.7333297729492" y="216.49682075885437" fill="#000" width="137.53334045410156" height="40" opacity="1"></rect></mask><g transform="translate(407.7333297729492 216.49682075885437) rotate(0 67.71614355650732 20.595566800963127)"><text x="68.76667022705078" y="14.016" font-family="Virgil, Segoe UI Emoji" font-size="16px" fill="#2f9e44" text-anchor="middle" style="white-space: pre;" direction="ltr" dominant-baseline="alphabetic">Request to sync </text><text x="68.76667022705078" y="34.016" font-family="Virgil, Segoe UI Emoji" font-size="16px" fill="#2f9e44" text-anchor="middle" style="white-space: pre;" direction="ltr" dominant-baseline="alphabetic">message history</text></g><g mask="url(#mask-psoPNAvl4HwScg4tPTXhg)" stroke-linecap="round"><g transform="translate(622.5 290.49682075885437) rotate(0 174.10617781765757 0.41300080547713947)"><path d="M-0.4 0.19 C57.73 0.15, 290.58 -0.09, 348.61 0.03 M1.59 -0.76 C59.63 -0.61, 290.43 1.62, 347.98 1.58" stroke="#f08c00" stroke-width="2" fill="none"></path></g><g transform="translate(622.5 290.49682075885437) rotate(0 174.10617781765757 0.41300080547713947)"><path d="M324.45 10.01 C331.49 8.69, 337.97 4.88, 347.98 1.58 M324.45 10.01 C333.64 6.95, 341.84 3.16, 347.98 1.58" stroke="#f08c00" stroke-width="2" fill="none"></path></g><g transform="translate(622.5 290.49682075885437) rotate(0 174.10617781765757 0.41300080547713947)"><path d="M324.53 -7.09 C331.59 -3.51, 338.05 -2.42, 347.98 1.58 M324.53 -7.09 C333.53 -3.73, 341.7 -1.1, 347.98 1.58" stroke="#f08c00" stroke-width="2" fill="none"></path></g></g><mask id="mask-psoPNAvl4HwScg4tPTXhg"><rect x="0" y="0" fill="#fff" width="1070.5" height="390.49682075885437"></rect><rect x="693.5166702270508" y="270.49682075885437" fill="#000" width="205.96665954589844" height="40" opacity="1"></rect></mask><g transform="translate(693.5166702270508 270.49682075885437) rotate(0 103.08950759060679 20.41300080547714)"><text x="102.98332977294922" y="14.016" font-family="Virgil, Segoe UI Emoji" font-size="16px" fill="#f08c00" text-anchor="middle" style="white-space: pre;" direction="ltr" dominant-baseline="alphabetic">Encrypt, encode and send </text><text x="102.98332977294922" y="34.016" font-family="Virgil, Segoe UI Emoji" font-size="16px" fill="#f08c00" text-anchor="middle" style="white-space: pre;" direction="ltr" dominant-baseline="alphabetic">group messages</text></g><g mask="url(#mask-vcfo6FuwNPddkI1qXjdTh)" stroke-linecap="round"><g transform="translate(618.5 342.49682075885437) rotate(0 -138.84079276653938 -1.3576336224097645)"><path d="M0.61 0.03 C-45.53 -0.19, -230.77 -0.93, -277.23 -1.1 M-0.53 -1 C-46.81 -1.56, -232.41 -2.44, -278.29 -2.74" stroke="#f08c00" stroke-width="2" fill="none"></path></g><g transform="translate(618.5 342.49682075885437) rotate(0 -138.84079276653938 -1.3576336224097645)"><path d="M-254.75 -11.16 C-260.97 -9.17, -265.8 -8.45, -278.29 -2.74 M-254.75 -11.16 C-264.11 -8.19, -272.84 -4.68, -278.29 -2.74" stroke="#f08c00" stroke-width="2" fill="none"></path></g><g transform="translate(618.5 342.49682075885437) rotate(0 -138.84079276653938 -1.3576336224097645)"><path d="M-254.85 5.94 C-261.07 3.37, -265.87 -0.47, -278.29 -2.74 M-254.85 5.94 C-264.22 2.35, -272.91 -0.71, -278.29 -2.74" stroke="#f08c00" stroke-width="2" fill="none"></path></g></g><mask id="mask-vcfo6FuwNPddkI1qXjdTh"><rect x="0" y="0" fill="#fff" width="995.5" height="444.49682075885437"></rect><rect x="386.58333587646484" y="321.49682075885437" fill="#000" width="186.8333282470703" height="40" opacity="1"></rect></mask><g transform="translate(386.58333587646484 321.49682075885437) rotate(0 93.07587135699578 19.642366377590236)"><text x="93.41666412353516" y="14.016" font-family="Virgil, Segoe UI Emoji" font-size="16px" fill="#f08c00" text-anchor="middle" style="white-space: pre;" direction="ltr" dominant-baseline="alphabetic">Inform New Device/App </text><text x="93.41666412353516" y="34.016" font-family="Virgil, Segoe UI Emoji" font-size="16px" fill="#f08c00" text-anchor="middle" style="white-space: pre;" direction="ltr" dominant-baseline="alphabetic">of messages location</text></g><g mask="url(#mask-H5kx-6G_b73eX4GC0kH2x)" stroke-linecap="round"><g transform="translate(336.5 398.49682075885437) rotate(0 316.5875260667689 0.23207299728687758)"><path d="M-0.23 0.9 C105.15 1.07, 527.1 1.09, 632.86 1 M-1.8 0.33 C103.87 0.17, 529.05 -0.24, 634.98 -0.59" stroke="#2f9e44" stroke-width="2" fill="none"></path></g><g transform="translate(336.5 398.49682075885437) rotate(0 316.5875260667689 0.23207299728687758)"><path d="M611.5 8.01 C621.24 3.14, 629.65 2.57, 634.98 -0.59 M611.5 8.01 C619.24 5.19, 627.21 1.97, 634.98 -0.59" stroke="#2f9e44" stroke-width="2" fill="none"></path></g><g transform="translate(336.5 398.49682075885437) rotate(0 316.5875260667689 0.23207299728687758)"><path d="M611.47 -9.09 C621.22 -7.96, 629.64 -2.53, 634.98 -0.59 M611.47 -9.09 C619.16 -6.26, 627.14 -3.84, 634.98 -0.59" stroke="#2f9e44" stroke-width="2" fill="none"></path></g></g><mask id="mask-H5kx-6G_b73eX4GC0kH2x"><rect x="0" y="0" fill="#fff" width="1070.5" height="498.49682075885437"></rect><rect x="536.8833312988281" y="388.49682075885437" fill="#000" width="233.23333740234375" height="20" opacity="1"></rect></mask><g transform="translate(536.8833312988281 388.49682075885437) rotate(0 116.20419476794075 10.232072997286878)"><text x="116.61666870117188" y="14.016" font-family="Virgil, Segoe UI Emoji" font-size="16px" fill="#2f9e44" text-anchor="middle" style="white-space: pre;" direction="ltr" dominant-baseline="alphabetic">Download encrypted messages</text></g><g transform="translate(344.25 431.24682075885437) rotate(0 53 30)"><text x="0" y="14.016" font-family="Virgil, Segoe UI Emoji" font-size="16px" fill="#2f9e44" text-anchor="start" style="white-space: pre;" direction="ltr" dominant-baseline="alphabetic">Insert </text><text x="0" y="34.016" font-family="Virgil, Segoe UI Emoji" font-size="16px" fill="#2f9e44" text-anchor="start" style="white-space: pre;" direction="ltr" dominant-baseline="alphabetic">Messages </text><text x="0" y="54.016" font-family="Virgil, Segoe UI Emoji" font-size="16px" fill="#2f9e44" text-anchor="start" style="white-space: pre;" direction="ltr" dominant-baseline="alphabetic">into local DB</text></g><g mask="url(#mask-XhIVpHLdc5LPc4tPn_WyW)" stroke-linecap="round"><g transform="translate(109.25 72.24682075885435) rotate(0 72.7131644478813 -8.637545885534763)"><path d="M1.14 -0.19 C14.55 -3.05, 57.19 -17.46, 81.19 -17.54 C105.19 -17.62, 134.66 -3.75, 145.14 -0.69 M0.28 -1.33 C14 -4.01, 59.36 -16.55, 83.48 -16.29 C107.59 -16.02, 134.83 -2.23, 144.97 0.27" stroke="#1e1e1e" stroke-width="2" fill="none"></path></g><g transform="translate(109.25 72.24682075885435) rotate(0 72.7131644478813 -8.637545885534763)"><path d="M119.98 0.57 C128.77 -1.13, 137.28 2.01, 144.97 0.27 M119.98 0.57 C126.92 -0.03, 131.72 -0.39, 144.97 0.27" stroke="#1e1e1e" stroke-width="2" fill="none"></path></g><g transform="translate(109.25 72.24682075885435) rotate(0 72.7131644478813 -8.637545885534763)"><path d="M125.63 -15.57 C132.32 -11.34, 138.77 -2.32, 144.97 0.27 M125.63 -15.57 C131.22 -12.21, 134.64 -8.66, 144.97 0.27" stroke="#1e1e1e" stroke-width="2" fill="none"></path></g></g><mask id="mask-XhIVpHLdc5LPc4tPn_WyW"><rect x="0" y="0" fill="#fff" width="353.25" height="189.24682075885437"></rect><rect x="173.86666679382324" y="45.24682075885437" fill="#000" width="34.766666412353516" height="20" opacity="1"></rect></mask><g transform="translate(173.86666679382324 45.24682075885437) rotate(0 8.096497654058055 18.362454114465237)"><text x="17.383333206176758" y="14.016" font-family="Virgil, Segoe UI Emoji" font-size="16px" fill="#1e1e1e" text-anchor="middle" style="white-space: pre;" direction="ltr" dominant-baseline="alphabetic">owns</text></g><g mask="url(#mask-plw2Y28-OFTyreLdDrpyu)" stroke-linecap="round"><g transform="translate(109.12809723727042 70.24594648591396) rotate(0.821823717302515 218.1322077052016 -25.004449909203302)"><path d="M1.05 -0.18 C37.7 -8.61, 147.1 -49.6, 219.61 -49.38 C292.12 -49.15, 400.17 -7.09, 436.12 1.16 M0.15 -1.33 C37.21 -9.6, 149.36 -51.3, 221.99 -51.17 C294.62 -51.05, 400.32 -9.32, 435.94 -0.57" stroke="#1e1e1e" stroke-width="2" fill="none"></path></g><g transform="translate(109.12809723727042 70.24594648591396) rotate(0.821823717302515 218.1322077052016 -25.004449909203302)"><path d="M410.97 0.72 C417.57 -0.91, 425.84 1.65, 435.94 -0.57 M410.97 0.72 C421.41 0.12, 431.39 -0.08, 435.94 -0.57" stroke="#1e1e1e" stroke-width="2" fill="none"></path></g><g transform="translate(109.12809723727042 70.24594648591396) rotate(0.821823717302515 218.1322077052016 -25.004449909203302)"><path d="M415.98 -15.63 C421.36 -12.69, 428.24 -5.59, 435.94 -0.57 M415.98 -15.63 C424.47 -9.73, 432.46 -3.45, 435.94 -0.57" stroke="#1e1e1e" stroke-width="2" fill="none"></path></g></g><mask id="mask-plw2Y28-OFTyreLdDrpyu"><rect x="0" y="0" fill="#fff" width="644.1280972372704" height="220.24769521911753"></rect><rect x="312.34691566458076" y="10.277056243539903" fill="#000" width="34.766666412353516" height="20" opacity="1"></rect></mask><g transform="translate(312.3469156645808 10.277056243539889) rotate(0 14.91338927789127 34.96444033317077)"><text x="17.383333206176758" y="14.016" font-family="Virgil, Segoe UI Emoji" font-size="16px" fill="#1e1e1e" text-anchor="middle" style="white-space: pre;" direction="ltr" dominant-baseline="alphabetic">owns</text></g></svg>